<svg width="157" height="38" viewBox="0 0 157 38" fill="none" xmlns="http://www.w3.org/2000/svg">
<g clip-path="url(#clip0_429_217)">
<mask id="mask0_429_217" style="mask-type:luminance" maskUnits="userSpaceOnUse" x="0" y="0" width="157" height="38">
<path d="M157 0.5H0V37.5H157V0.5Z" fill="white"/>
</mask>
<g mask="url(#mask0_429_217)">
<path d="M25.1001 3.92722C9.24368 6.86482 4.26634 18.6153 2.55982 22.672C1.63545 24.7702 0.568869 28.0576 0.71108 32.2542H30.2908C31.0728 32.2542 31.7129 31.6248 31.7129 30.8554V3.22779C30.362 3.22779 27.9442 3.36768 25.1712 3.85728L25.1001 3.92722Z" fill="#124EEB"/>
<path d="M4.3374 36.6606C2.48868 37.2903 0.85326 37.43 0 37.5V1.89887C0 1.12949 0.639946 0.5 1.4221 0.5H20.6916C20.6916 5.8157 20.0516 10.0123 19.4117 12.7401C18.274 17.9159 14.9321 32.9537 4.3374 36.6606Z" fill="#FB0095"/>
<path d="M53.6844 18.965C53.6844 17.9858 53.3998 17.2864 52.831 16.7268C52.2622 16.1673 51.5511 15.9575 50.6268 15.9575C49.7734 15.9575 49.0623 16.1673 48.4225 16.587C47.7827 17.0066 47.3559 17.706 47.0716 18.6852L43.1607 17.4962C43.5162 16.0274 44.3695 14.8384 45.6494 13.999C46.9293 13.1597 48.707 12.6701 50.84 12.6701C52.3332 12.6701 53.6131 12.88 54.6797 13.3696C55.7463 13.8592 56.6707 14.4887 57.2395 15.3979C57.8796 16.3072 58.1639 17.4263 58.1639 18.8251V25.5396C58.1639 26.379 58.5904 26.7988 59.3728 26.7988C59.7283 26.7988 60.0838 26.7988 60.4394 26.6588L60.1549 29.4565C59.586 29.7362 58.875 29.8762 57.9506 29.8762C57.1685 29.8762 56.4574 29.7362 55.8174 29.4565C55.1775 29.1768 54.6797 28.8271 54.3242 28.2674C53.9687 27.7079 53.7554 27.0785 53.7554 26.2391V26.0993L54.5375 25.9593C54.3954 26.7988 54.0399 27.4982 53.3998 28.1276C52.76 28.7571 52.0489 29.1768 51.1956 29.4565C50.3422 29.7362 49.4179 29.9462 48.4935 29.9462C47.3559 29.9462 46.3605 29.7362 45.5072 29.4565C44.6538 29.1068 44.014 28.6171 43.5874 27.9877C43.1607 27.3582 42.9474 26.5188 42.9474 25.5396C42.9474 24.2807 43.3739 23.3016 44.1563 22.5321C44.9384 21.7627 46.1472 21.2032 47.6404 20.9234L53.9687 19.6644V22.4622L49.9157 23.2316C49.1336 23.3713 48.5648 23.5813 48.2092 23.861C47.7827 24.1408 47.6404 24.4905 47.6404 25.1199C47.6404 25.6796 47.8537 26.0993 48.2803 26.379C48.707 26.6588 49.2046 26.7988 49.7734 26.7988C50.2712 26.7988 50.6978 26.7988 51.1246 26.6588C51.5511 26.5188 51.9777 26.379 52.3332 26.0993C52.6888 25.8894 52.9733 25.5396 53.1866 25.1199C53.3998 24.7005 53.4711 24.2108 53.4711 23.5813V19.1049L53.6844 18.965Z" fill="white"/>
<path d="M78.6423 13.0198L72.1716 21.9026H70.8207L65.9144 29.5265H60.7238L67.6921 20.0841L69.043 20.224L73.5227 12.88H78.7846L78.6423 13.0198ZM66.2699 13.0198L70.6784 20.2939H71.9583L78.7133 29.5965H73.3805L68.8297 22.1824L67.4788 22.0425L61.0083 13.0198H66.4122H66.2699Z" fill="white"/>
<path d="M87.8859 29.8762C86.1082 29.8762 84.544 29.5265 83.2641 28.8271C81.9842 28.1276 80.9176 27.1485 80.2065 25.8894C79.4954 24.6305 79.1399 23.0916 79.1399 21.2731C79.1399 19.4546 79.4954 17.9159 80.2065 16.6569C80.9176 15.3979 81.9132 14.4187 83.1931 13.7193C84.473 13.0198 85.9662 12.6701 87.6016 12.6701C89.237 12.6701 90.7302 13.0198 91.9389 13.6493C93.1477 14.2788 94.0721 15.258 94.6409 16.3771C95.2807 17.5661 95.5653 18.8951 95.5653 20.3639C95.5653 20.7835 95.5653 21.2032 95.5653 21.6229C95.5653 22.0425 95.5653 22.3922 95.4942 22.672H82.0552V19.5246H93.5033L91.299 20.2939C91.299 18.8951 91.0145 17.8459 90.3747 17.0765C89.7346 16.3072 88.8102 15.9575 87.6726 15.9575C86.8193 15.9575 86.1082 16.1673 85.4684 16.517C84.8285 16.8667 84.4017 17.4962 84.0462 18.2656C83.7619 19.0349 83.5486 20.0142 83.5486 21.2032C83.5486 22.3922 83.6907 23.3713 84.0462 24.0708C84.4017 24.8402 84.8995 25.3999 85.5394 25.7496C86.1794 26.0993 86.9615 26.3091 87.8149 26.3091C88.8102 26.3091 89.5923 26.0993 90.2324 25.7496C90.8012 25.3999 91.299 24.8402 91.6546 24.2108L95.352 25.6096C94.9964 26.449 94.4276 27.2182 93.7166 27.8479C93.0055 28.4773 92.1521 28.9668 91.1568 29.2468C90.1614 29.5265 89.0948 29.7362 87.9571 29.7362L87.8859 29.8762Z" fill="white"/>
<path d="M103.245 5.74575V24.4905C103.245 25.2599 103.387 25.8194 103.671 26.0993C103.956 26.379 104.382 26.5888 105.022 26.5888C105.378 26.5888 105.733 26.5888 105.947 26.5188C106.16 26.5188 106.515 26.379 106.871 26.2391L106.444 29.2468C106.089 29.4565 105.591 29.6663 105.022 29.7362C104.453 29.8762 103.884 29.9462 103.316 29.9462C101.68 29.9462 100.472 29.5265 99.7604 28.7571C98.9783 27.9877 98.6228 26.7288 98.6228 24.9802V5.74575H103.245Z" fill="white"/>
<path d="M116.328 12.6701C118.035 12.6701 119.528 13.0198 120.808 13.7193C122.087 14.4187 123.083 15.3979 123.865 16.6569C124.647 17.9159 124.932 19.4546 124.932 21.2731C124.932 23.0916 124.576 24.6305 123.865 25.8894C123.154 27.1485 122.159 28.1976 120.808 28.8271C119.456 29.4565 118.035 29.8762 116.328 29.8762C114.621 29.8762 113.128 29.5265 111.848 28.8271C110.568 28.1276 109.502 27.1485 108.791 25.8894C108.08 24.6305 107.724 23.0216 107.724 21.2731C107.724 19.5246 108.08 17.9159 108.791 16.6569C109.502 15.3979 110.568 14.4187 111.848 13.7193C113.128 13.0198 114.621 12.6701 116.328 12.6701ZM116.328 16.0274C115.475 16.0274 114.764 16.2372 114.124 16.5869C113.555 16.9366 113.057 17.5661 112.773 18.3355C112.488 19.1049 112.275 20.0841 112.275 21.2731C112.275 22.4622 112.417 23.4413 112.773 24.2108C113.057 24.9802 113.555 25.5396 114.124 25.9593C114.692 26.3091 115.475 26.5188 116.328 26.5188C117.181 26.5188 117.892 26.3091 118.461 25.9593C119.03 25.5396 119.528 24.9802 119.812 24.2108C120.097 23.4413 120.31 22.4622 120.31 21.2731C120.31 20.0841 120.168 19.1049 119.812 18.3355C119.528 17.5661 119.03 17.0066 118.461 16.5869C117.892 16.1673 117.181 16.0274 116.328 16.0274Z" fill="white"/>
<path d="M139.153 13.0198V16.3771H126.069V13.0198H139.153ZM133.749 7.914V24.1408C133.749 24.9102 133.962 25.5396 134.389 25.8894C134.815 26.2391 135.384 26.449 136.095 26.449C136.664 26.449 137.162 26.379 137.588 26.1691C138.015 26.0293 138.37 25.7496 138.726 25.4697L139.437 28.4774C138.868 28.8971 138.228 29.2468 137.446 29.4565C136.664 29.7362 135.811 29.8062 134.886 29.8062C133.749 29.8062 132.753 29.6663 131.9 29.3165C131.047 28.9668 130.336 28.4774 129.909 27.7079C129.482 26.9385 129.198 26.0293 129.198 24.7702V9.17298L133.82 7.914H133.749Z" fill="white"/>
<path d="M149.25 29.8762C147.472 29.8762 145.908 29.5265 144.628 28.8271C143.348 28.1276 142.281 27.1485 141.57 25.8894C140.859 24.6305 140.504 23.0916 140.504 21.2731C140.504 19.4546 140.859 17.9159 141.57 16.6569C142.281 15.3979 143.277 14.4187 144.557 13.7193C145.836 13.0198 147.33 12.6701 148.965 12.6701C150.6 12.6701 152.094 13.0198 153.303 13.6493C154.511 14.2788 155.436 15.258 156.005 16.3771C156.644 17.5661 156.929 18.8951 156.929 20.3639C156.929 20.7835 156.929 21.2032 156.929 21.6229C156.929 22.0425 156.929 22.3922 156.858 22.672H143.419V19.5246H154.867L152.662 20.2939C152.662 18.8951 152.378 17.8459 151.738 17.0765C151.098 16.3072 150.174 15.9575 149.036 15.9575C148.183 15.9575 147.472 16.1673 146.832 16.517C146.192 16.8667 145.765 17.4962 145.41 18.2656C145.125 19.0349 144.912 20.0142 144.912 21.2032C144.912 22.3922 145.054 23.3713 145.41 24.0708C145.765 24.8402 146.263 25.3999 146.903 25.7496C147.543 26.0993 148.325 26.3091 149.178 26.3091C150.174 26.3091 150.956 26.0993 151.596 25.7496C152.165 25.3999 152.662 24.8402 153.018 24.2108L156.716 25.6096C156.36 26.449 155.791 27.2182 155.08 27.8479C154.369 28.4773 153.516 28.9668 152.52 29.2468C151.525 29.5265 150.458 29.7362 149.321 29.7362L149.25 29.8762Z" fill="white"/>
</g>
</g>
<defs>
<clipPath id="clip0_429_217">
<rect width="157" height="37" fill="white" transform="translate(0 0.5)"/>
</clipPath>
</defs>
</svg>
