<svg width="485" height="479" viewBox="0 0 485 479" fill="none" xmlns="http://www.w3.org/2000/svg">
<g clip-path="url(#clip0_170_2)">
<path fill-rule="evenodd" clip-rule="evenodd" d="M113.52 274.88L0.5 275.21L0.63 383.85C0.53 392.32 5.95 397.77 8.01 393.26C8.22 392.79 8.4 392.22 8.53 391.53C8.72 390.51 9.01 389.52 9.39 388.75C10.22 387.07 11.48 386.51 13.06 389.34C14.29 391.53 14.64 393.62 14.65 395.77C14.65 398.64 14.04 401.62 14.06 405.13C14.07 408.35 14.61 412 16.65 416.4C17.72 423.23 18.11 427.56 18.1 432.55C18.1 435.54 17.94 438.77 17.7 442.91C17.04 444.52 16.79 446.31 16.82 448.02C16.94 453.74 20.29 458.68 22.67 453.92C23.38 452.49 24.01 450.2 24.44 446.79C24.78 444.07 23.39 440.33 23.5 436.09C23.81 424.13 20.51 409.42 20.47 405.71C20.46 404.62 20.78 403.56 21.35 402.52C22.3 400.78 23.94 399.07 25.84 397.22C26.57 396.51 27.12 395.71 27.54 394.88C28.82 392.4 29 389.66 29.57 388.55C29.82 388.06 30.16 387.9 30.7 388.22C32.1 389.06 32.85 390.12 33.17 391.33C33.17 391.33 33.17 391.34 33.17 391.35C33.17 391.66 33.03 394.12 33.03 397.22C33.03 405.01 33.87 416.85 39.69 408.86C39.72 408.82 39.75 408.77 39.77 408.71C40.1 407.9 39.85 405.39 40.15 404.64C40.17 404.59 40.19 404.55 40.22 404.52C40.99 403.57 42.2 404.14 42.67 404.09C43.22 404.02 43.65 404.59 44.01 405.89C44.07 406.12 44.1 406.41 44.1 406.73C44.1 407.21 44.06 407.79 44.05 408.41C44.05 409.03 44.07 409.7 44.21 410.38C44.11 410.95 44.09 411.54 44.1 412.17C44.13 413.42 44.3 414.78 44.3 416.2C44.3 416.91 44.25 417.64 44.12 418.38C43.53 421.71 41.59 425.26 41.59 427.7C41.59 432.99 47.64 434.56 49.84 430.37C50.46 429.2 50.78 427.58 50.57 425.46C50.07 420.17 48.59 413.95 49.02 413C49.73 411.46 51.5 411.43 52.23 409.94C52.4 409.6 52.51 409.17 52.54 408.64C52.67 406.27 52.81 403.36 53.45 402.12C53.95 401.16 54.76 401.22 56.11 403.32C57.74 405.87 57.96 409.33 57.95 412.92C57.95 414.46 57.9 416.02 57.91 417.54C57.92 420.59 58.15 423.47 59.32 425.71C60.27 427.51 62.95 427.41 64.49 425.91C64.98 425.43 65.36 424.82 65.65 424.19C66.28 422.85 66.49 421.49 66.51 421.42C67.45 420.61 68.41 422.17 68.56 423C69.63 428.93 70.2 435 70.31 441.07C70.42 447.14 70.06 453.23 69.28 459.21C68.96 461.63 67.18 464.34 66.64 466.59C66.36 467.77 66.26 468.85 66.27 469.82C66.28 471.45 66.6 472.79 66.86 473.81C68.67 480.73 73.2 479.67 75.79 474.64C77.34 471.63 78.2 467.18 77.34 462.17C76.1 454.9 73.75 445.88 73.73 437.65C73.71 426.38 73.88 401.12 76.07 396.66C76.68 395.42 77.46 395.81 78.43 398.6C80.45 404.37 81.82 414.28 81.89 422.77C81.94 429.37 81.21 435.11 79.39 437.39C78.86 438.05 78.73 439.4 78.73 440.58C78.73 441.76 78.86 442.78 78.86 442.78C81.16 450.66 85.63 451.08 87.46 447.2C88.29 445.44 88.58 442.78 87.87 439.53C87.27 436.79 87.35 434.65 87.07 430.37C86.28 418.32 85.11 400.22 88.87 393.26C89.92 391.31 91.36 390.24 93.31 390.42C95.08 390.58 96.93 392.33 98.68 396.44C100.41 400.49 99.81 406.83 102.21 409.54C105 412.69 108.5 413.43 110.62 409.01C111.73 406.69 112.46 402.96 112.5 397.41L113.53 274.87L113.52 274.88Z" fill="url(#paint0_linear_170_2)"/>
<path fill-rule="evenodd" clip-rule="evenodd" d="M0.440162 245.74L0.300162 232.1C0.0901623 213.51 -0.959838 177.19 2.69016 168.61C9.90016 151.62 29.4102 152.42 30.7602 133.68C31.6802 120.89 34.4402 46.37 34.5702 30.75C33.9302 29.72 32.9902 31.51 31.7902 29.22C28.7402 23.4 29.8202 17.25 31.6502 13.95C32.2902 12.79 32.2102 13.11 34.3002 13.03C32.8202 9.61 33.1902 0.8 38.3402 0L73.9802 0.39C79.5202 1.24 78.9102 7.11 78.4902 13.28C78.5302 13.43 81.1802 12.45 81.8502 17.34C82.4202 21.56 82.2002 27.72 80.6502 28.96C79.2302 30.09 77.5002 29.32 77.5102 29.86C78.1202 58.74 79.5302 106.35 83.0102 133.66C85.6702 154.54 103.61 150.4 111.93 169.03C116.31 178.83 113.28 194.55 114.25 224.34L113.78 245.73H0.440162V245.74Z" fill="black"/>
<mask id="mask0_170_2" style="mask-type:luminance" maskUnits="userSpaceOnUse" x="11" y="149" width="27" height="97">
<path d="M37.11 149.89H11.46V245.74H37.11V149.89Z" fill="url(#paint1_linear_170_2)"/>
</mask>
<g mask="url(#mask0_170_2)">
<path fill-rule="evenodd" clip-rule="evenodd" d="M36.8499 149.89C26.4899 158.83 20.2899 164.8 16.6299 174.33C8.91992 194.41 12.2099 219.29 11.8899 245.73H29.4699C25.9499 220.12 20.5099 183.1 37.1099 161.17L36.8499 149.88V149.89Z" fill="#999999"/>
</g>
<mask id="mask1_170_2" style="mask-type:luminance" maskUnits="userSpaceOnUse" x="73" y="156" width="35" height="85">
<path d="M107.87 156.02H73.77V240.13H107.87V156.02Z" fill="url(#paint2_linear_170_2)"/>
</mask>
<g mask="url(#mask1_170_2)">
<path fill-rule="evenodd" clip-rule="evenodd" d="M74.1198 156.02C87.8998 163.87 96.1298 169.1 101 177.47C111.25 195.09 106.88 216.92 107.3 240.12H83.9298C88.6098 217.64 95.8398 185.17 73.7798 165.92L74.1298 156.01L74.1198 156.02Z" fill="#999999"/>
</g>
<mask id="mask2_170_2" style="mask-type:luminance" maskUnits="userSpaceOnUse" x="36" y="0" width="19" height="137">
<path d="M54.2599 0.259766H36.6899V136.27H54.2599V0.259766Z" fill="url(#paint3_linear_170_2)"/>
</mask>
<g mask="url(#mask2_170_2)">
<path fill-rule="evenodd" clip-rule="evenodd" d="M37.5599 126.58C38.3199 103.62 39.7399 44.69 39.8099 31C39.3899 29.97 38.7599 31.76 37.9599 29.47C35.9399 23.65 36.6599 17.51 37.8699 14.2C38.2999 13.04 38.2399 13.36 39.6299 13.28C38.6499 9.86 38.8899 1.05 42.3099 0.25L48.5699 0.35C48.4099 2.68 46.0199 3.68 45.8699 5.98C45.5999 10.08 46.6699 14.16 46.4699 18.22C46.1799 23.98 45.0099 29.18 44.7999 34.89C43.7099 65.35 44.9299 96.01 48.5699 128.8C48.5699 134.74 50.0099 133.28 54.2599 134.89C47.0299 135.69 37.0999 140.23 37.5499 126.56" fill="#999999"/>
</g>
<mask id="mask3_170_2" style="mask-type:luminance" maskUnits="userSpaceOnUse" x="63" y="0" width="11" height="137">
<path d="M73.7199 0.259766H63.1899V136.27H73.7199V0.259766Z" fill="url(#paint4_linear_170_2)"/>
</mask>
<g mask="url(#mask3_170_2)">
<path fill-rule="evenodd" clip-rule="evenodd" d="M73.1899 126.58C72.7399 103.62 71.8899 44.69 71.8399 31C72.0899 29.97 72.4699 31.76 72.9499 29.47C74.1599 23.65 73.7299 17.51 73.0099 14.2C72.7499 13.04 72.7899 13.36 71.9599 13.28C72.5499 9.86 72.3999 1.05 70.3499 0.25L66.5999 0.35C66.6999 2.68 68.1299 3.68 68.2199 5.98C68.3799 10.08 67.7399 14.16 67.8599 18.22C68.0299 23.98 68.7399 29.18 68.8599 34.89C69.5099 65.35 68.7799 96.01 66.5999 128.8C66.5999 134.74 65.7299 133.28 63.1899 134.89C67.5199 135.69 73.4699 140.23 73.1999 126.56" fill="#999999"/>
</g>
<path d="M113.51 253.46H0.510254V268.43H113.51V253.46Z" fill="black"/>
<path d="M164.26 391.22H154.54V405.01H164.26V391.22Z" fill="white"/>
<path d="M188.59 207.51L209.25 147.16L229.36 207.51H234.49L269.86 103.42H258.52C254.2 116.11 249.77 129.11 245.22 142.43C240.68 155.75 236.24 168.85 231.92 181.72C230.3 176.86 228.79 172.36 227.4 168.22C226 164.08 224.63 160.03 223.28 156.07C221.93 152.11 220.58 148.08 219.23 143.99C217.88 139.89 216.4 135.46 214.78 130.69L223.96 103.42H212.62C212.17 104.95 211.63 106.59 211 108.35C210.37 110.11 209.74 111.88 209.11 113.68L205.73 103.42H194.39L203.44 130.55L186.16 181.72L159.83 103.42H148.49L183.46 207.51H188.59Z" fill="white"/>
<path d="M316.1 338.57H344.88V405.02H354.48V338.57H383.27V329.69H316.1V338.57Z" fill="white"/>
<path d="M291.87 122.73H281.07V207.51H291.87V122.73Z" fill="white"/>
<path d="M321.57 137.85L366.25 176.32V207.51H377.05V122.73H366.25V162.55L320.08 122.73H310.77V207.51H321.57V137.85Z" fill="white"/>
<path d="M209.59 312.54L173.37 405.01H183.8C185.8 399.73 187.86 394.42 189.98 389.06C192.1 383.7 194.16 378.43 196.16 373.23H228.54L241.49 405.01H252.04L214.14 312.54H209.58H209.59ZM218.59 348.82C219.63 351.34 220.67 353.86 221.71 356.38C222.75 358.9 223.83 361.48 224.95 364.12H199.64L211.99 332.7C213.19 335.66 214.33 338.46 215.41 341.1C216.49 343.74 217.55 346.32 218.59 348.84V348.82Z" fill="white"/>
<path d="M481 147.03C478.39 141.63 474.9 137.04 470.54 133.26C466.17 129.48 461.16 126.58 455.49 124.55C449.82 122.53 443.92 121.51 437.8 121.51C431.68 121.51 425.76 122.52 420.05 124.55C414.34 126.57 409.3 129.48 404.93 133.26C400.57 137.04 397.08 141.63 394.47 147.03C391.86 152.43 390.56 158.46 390.56 165.12C390.56 171.78 391.86 177.92 394.47 183.28C397.08 188.63 400.57 193.2 404.93 196.98C409.3 200.76 414.34 203.66 420.05 205.69C425.77 207.71 431.68 208.73 437.8 208.73C443.92 208.73 449.81 207.72 455.49 205.69C461.16 203.66 466.18 200.76 470.54 196.98C474.9 193.2 478.39 188.63 481 183.28C483.61 177.93 484.91 171.87 484.91 165.12C484.91 158.37 483.61 152.43 481 147.03ZM471.15 179.16C469.17 183.3 466.49 186.83 463.12 189.76C459.75 192.69 455.87 194.91 451.51 196.44C447.15 197.97 442.58 198.74 437.81 198.74C433.04 198.74 428.45 197.98 424.04 196.44C419.63 194.91 415.74 192.68 412.36 189.76C408.99 186.84 406.31 183.3 404.33 179.16C402.35 175.02 401.36 170.34 401.36 165.12C401.36 159.9 402.35 155.22 404.33 151.08C406.31 146.94 408.99 143.43 412.36 140.55C415.73 137.67 419.63 135.44 424.04 133.87C428.45 132.29 433.04 131.51 437.81 131.51C442.58 131.51 447.15 132.3 451.51 133.87C455.87 135.44 459.75 137.67 463.12 140.55C466.49 143.43 469.17 146.94 471.15 151.08C473.13 155.22 474.12 159.9 474.12 165.12C474.12 170.34 473.13 175.02 471.15 179.16Z" fill="white"/>
<path d="M308.72 393.38C306.52 391.3 304.34 389.22 302.18 387.14C300.02 385.06 297.98 383.1 296.06 381.26C299.02 380.54 301.72 379.4 304.16 377.84C306.6 376.28 308.7 374.42 310.46 372.26C312.22 370.1 313.6 367.64 314.6 364.88C315.6 362.12 316.1 359.14 316.1 355.94C316.1 351.94 315.28 348.32 313.64 345.09C312 341.85 309.7 339.09 306.74 336.81C303.78 334.53 300.26 332.77 296.19 331.53C292.11 330.29 287.63 329.67 282.76 329.67H261.65V404.99H271.25V382.2H284.44L307.59 404.99H320.9C319.14 403.31 317.22 401.47 315.14 399.47C313.06 397.47 310.92 395.43 308.72 393.35V393.38ZM287.91 373.35H271.24V338.57H283.71C286.75 338.57 289.65 338.97 292.41 339.77C295.17 340.57 297.59 341.73 299.67 343.25C301.75 344.77 303.41 346.59 304.65 348.71C305.89 350.83 306.51 353.25 306.51 355.97C306.51 358.37 306.07 360.63 305.19 362.75C304.31 364.87 303.07 366.71 301.47 368.27C299.87 369.83 297.93 371.07 295.65 371.99C293.37 372.91 290.79 373.37 287.91 373.37V373.35Z" fill="white"/>
<path d="M164.04 283.47C167.05 286.35 170.58 288.61 174.63 290.26C178.68 291.91 182.99 292.74 187.57 292.74H188.53C193.06 292.74 197.33 291.93 201.35 290.3C205.37 288.68 208.89 286.45 211.9 283.63C214.91 280.81 217.29 277.49 219.05 273.68C220.81 269.87 221.71 265.81 221.77 261.5V256.95H187.81V263.02H215.29C215.02 266.38 214.16 269.51 212.69 272.41C211.23 275.31 209.29 277.84 206.9 280C204.5 282.16 201.73 283.86 198.59 285.11C195.45 286.36 192.09 286.99 188.52 286.99H187.56C183.83 286.99 180.34 286.31 177.09 284.95C173.84 283.59 171 281.73 168.58 279.36C166.16 276.99 164.24 274.23 162.83 271.09C161.42 267.95 160.71 264.62 160.71 261.1C160.71 257.58 161.42 254.27 162.83 251.15C164.24 248.03 166.16 245.29 168.58 242.92C171 240.55 173.84 238.69 177.09 237.33C180.34 235.97 183.83 235.29 187.56 235.29C191.29 235.29 194.66 236.01 197.99 237.45C201.32 238.89 204.37 240.89 207.14 243.44L211.61 239.21C208.25 236.17 204.53 233.8 200.42 232.1C196.32 230.4 192.03 229.54 187.56 229.54C183.09 229.54 178.66 230.37 174.62 232.02C170.57 233.67 167.04 235.92 164.03 238.77C161.02 241.62 158.65 244.96 156.92 248.8C155.19 252.64 154.32 256.74 154.32 261.1C154.32 265.46 155.19 269.57 156.92 273.4C158.65 277.23 161.02 280.59 164.03 283.47H164.04Z" fill="white"/>
<path d="M374.53 291.94V241.76H368.14V265.33L340.81 241.76H335.3V291.94H341.69V250.71L368.14 273.48V291.94H374.53Z" fill="white"/>
<path d="M429.86 248C427.28 245.76 424.31 244.05 420.95 242.85C417.59 241.65 414.11 241.05 410.48 241.05C406.85 241.05 403.36 241.65 399.97 242.85C396.59 244.05 393.6 245.77 391.02 248C388.44 250.24 386.37 252.95 384.83 256.15C383.29 259.35 382.51 262.91 382.51 266.86C382.51 270.81 383.28 274.44 384.83 277.61C386.37 280.78 388.44 283.48 391.02 285.72C393.6 287.96 396.59 289.67 399.97 290.87C403.35 292.07 406.85 292.67 410.48 292.67C414.11 292.67 417.59 292.07 420.95 290.87C424.31 289.67 427.28 287.95 429.86 285.72C432.44 283.48 434.51 280.78 436.05 277.61C437.59 274.44 438.37 270.86 438.37 266.86C438.37 262.86 437.6 259.35 436.05 256.15C434.51 252.95 432.44 250.24 429.86 248ZM430.22 275.16C429.05 277.61 427.46 279.7 425.47 281.43C423.47 283.16 421.18 284.48 418.6 285.38C416.02 286.29 413.31 286.74 410.49 286.74C407.67 286.74 404.95 286.29 402.34 285.38C399.73 284.47 397.43 283.16 395.43 281.43C393.43 279.7 391.85 277.61 390.68 275.16C389.51 272.71 388.92 269.94 388.92 266.85C388.92 263.76 389.51 260.99 390.68 258.54C391.85 256.09 393.44 254.01 395.43 252.31C397.43 250.61 399.73 249.29 402.34 248.36C404.95 247.43 407.67 246.96 410.49 246.96C413.31 246.96 416.02 247.43 418.6 248.36C421.18 249.29 423.47 250.61 425.47 252.31C427.47 254.01 429.05 256.09 430.22 258.54C431.39 260.99 431.98 263.76 431.98 266.85C431.98 269.94 431.39 272.71 430.22 275.16Z" fill="white"/>
<path d="M279.97 285.71C282.55 287.95 285.54 289.66 288.92 290.86C292.3 292.06 295.8 292.66 299.43 292.66C303.06 292.66 306.54 292.06 309.9 290.86C313.26 289.66 316.23 287.94 318.81 285.71C321.39 283.47 323.46 280.77 325 277.6C326.54 274.43 327.32 270.85 327.32 266.85C327.32 262.85 326.55 259.34 325 256.14C323.46 252.94 321.39 250.23 318.81 247.99C316.23 245.75 313.26 244.04 309.9 242.84C306.54 241.64 303.06 241.04 299.43 241.04C295.8 241.04 292.31 241.64 288.92 242.84C285.54 244.04 282.55 245.76 279.97 247.99C277.39 250.23 275.32 252.94 273.78 256.14C272.24 259.34 271.46 262.9 271.46 266.85C271.46 270.8 272.23 274.43 273.78 277.6C275.32 280.77 277.39 283.47 279.97 285.71ZM279.61 258.54C280.78 256.09 282.37 254.01 284.36 252.31C286.36 250.61 288.66 249.29 291.27 248.36C293.88 247.43 296.6 246.96 299.42 246.96C302.24 246.96 304.95 247.43 307.53 248.36C310.11 249.29 312.4 250.61 314.4 252.31C316.4 254.01 317.98 256.09 319.15 258.54C320.32 260.99 320.91 263.76 320.91 266.85C320.91 269.94 320.32 272.71 319.15 275.16C317.98 277.61 316.39 279.7 314.4 281.43C312.4 283.16 310.11 284.48 307.53 285.38C304.95 286.29 302.24 286.74 299.42 286.74C296.6 286.74 293.88 286.29 291.27 285.38C288.66 284.47 286.36 283.16 284.36 281.43C282.36 279.7 280.78 277.61 279.61 275.16C278.44 272.71 277.85 269.94 277.85 266.85C277.85 263.76 278.44 260.99 279.61 258.54Z" fill="white"/>
<path d="M265.39 288.26C264 286.93 262.58 285.57 261.12 284.19C259.66 282.81 258.2 281.42 256.77 280.04C255.33 278.66 253.97 277.35 252.69 276.13C254.66 275.65 256.46 274.89 258.08 273.85C259.7 272.81 261.1 271.57 262.27 270.13C263.44 268.69 264.36 267.05 265.03 265.22C265.7 263.38 266.03 261.4 266.03 259.27C266.03 256.61 265.48 254.2 264.39 252.04C263.3 249.88 261.77 248.05 259.8 246.53C257.83 245.01 255.49 243.84 252.77 243.01C250.05 242.18 247.07 241.77 243.82 241.77H229.76V291.95H236.15V276.77H244.94L260.36 291.95H269.23C268.06 290.83 266.78 289.61 265.39 288.27V288.26ZM247.25 270.85H236.14V247.68H244.45C246.47 247.68 248.41 247.95 250.24 248.48C252.08 249.01 253.69 249.79 255.07 250.8C256.46 251.81 257.56 253.02 258.39 254.44C259.22 255.85 259.63 257.46 259.63 259.27C259.63 260.87 259.34 262.37 258.75 263.78C258.16 265.19 257.34 266.42 256.27 267.46C255.2 268.5 253.91 269.32 252.39 269.94C250.87 270.55 249.15 270.86 247.24 270.86L247.25 270.85Z" fill="white"/>
</g>
<defs>
<linearGradient id="paint0_linear_170_2" x1="0.5" y1="376.8" x2="113.52" y2="376.8" gradientUnits="userSpaceOnUse">
<stop stop-color="#164194"/>
<stop offset="0.06" stop-color="#184690"/>
<stop offset="0.13" stop-color="#205585"/>
<stop offset="0.21" stop-color="#2E6F73"/>
<stop offset="0.3" stop-color="#41925A"/>
<stop offset="0.36" stop-color="#50AF47"/>
<stop offset="0.67" stop-color="#D6AD00"/>
<stop offset="1" stop-color="#E30613"/>
</linearGradient>
<linearGradient id="paint1_linear_170_2" x1="13.01" y1="168.52" x2="40.31" y2="239.41" gradientUnits="userSpaceOnUse">
<stop stop-color="white"/>
<stop offset="1"/>
</linearGradient>
<linearGradient id="paint2_linear_170_2" x1="97.87" y1="170.36" x2="80.81" y2="237.44" gradientUnits="userSpaceOnUse">
<stop stop-color="white"/>
<stop offset="1"/>
</linearGradient>
<linearGradient id="paint3_linear_170_2" x1="40.9299" y1="-1.75023" x2="54.5799" y2="208.28" gradientUnits="userSpaceOnUse">
<stop stop-color="white"/>
<stop offset="1"/>
</linearGradient>
<linearGradient id="paint4_linear_170_2" x1="75.9799" y1="-1.22023" x2="53.3599" y2="207.24" gradientUnits="userSpaceOnUse">
<stop stop-color="white"/>
<stop offset="1"/>
</linearGradient>
<clipPath id="clip0_170_2">
<rect width="484.92" height="478.72" fill="white"/>
</clipPath>
</defs>
</svg>
